<svg width="1280" height="720" xmlns="http://www.w3.org/2000/svg" xmlns:xlink="http://www.w3.org/1999/xlink" overflow="hidden"><g><rect x="0" y="0" width="1280" height="720" fill="#FFFFFF"/><rect x="20" y="349" width="136" height="51" stroke="#2F528F" stroke-width="2" stroke-miterlimit="8" fill="#C7EBFC"/><text font-family="Calibri,Calibri_MSFontService,sans-serif" font-weight="400" font-size="24" transform="translate(67.7612 382)">član</text><path d="M192.5 294 253 250.5 313.5 294 253 337.5Z" stroke="#2F528F" stroke-width="1.33333" stroke-miterlimit="8" fill="#C7EBFC" fill-rule="evenodd"/><text font-family="Calibri,Calibri_MSFontService,sans-serif" font-weight="400" font-size="21.3333" transform="translate(211.848 300)">posuđuje</text><path d="M36.5001 193.5C36.5001 180.798 69.1833 170.5 109.5 170.5 149.817 170.5 182.5 180.798 182.5 193.5 182.5 206.203 149.817 216.5 109.5 216.5 69.1833 216.5 36.5001 206.203 36.5001 193.5Z" stroke="#2F528F" stroke-width="0.666667" stroke-miterlimit="8" fill="#C7EBFC" fill-rule="evenodd"/><text font-family="Calibri,Calibri_MSFontService,sans-serif" font-weight="400" font-size="21.3333" transform="translate(68.4822 200)">datPosud</text><rect x="750" y="108" width="136" height="52" stroke="#2F528F" stroke-width="2" stroke-miterlimit="8" fill="#C7EBFC"/><text font-family="Calibri,Calibri_MSFontService,sans-serif" font-weight="400" font-size="24" transform="translate(791.828 141)">autor</text><rect x="358" y="346" width="136" height="52" stroke="#2F528F" stroke-width="2" stroke-miterlimit="8" fill="#C7EBFC"/><text font-family="Calibri,Calibri_MSFontService,sans-serif" font-weight="400" font-size="24" transform="translate(379.622 380)">primjerak</text><path d="M182.5 478 243 434.5 303.5 478 243 521.5Z" stroke="#2F528F" stroke-width="1.33333" stroke-miterlimit="8" fill="#C7EBFC" fill-rule="evenodd"/><text font-family="Calibri,Calibri_MSFontService,sans-serif" font-weight="400" font-size="21.3333" transform="translate(204.401 485)">rezervira</text><path d="M0 0 104.114 55.5303" stroke="#4472C4" stroke-width="0.666667" stroke-miterlimit="8" fill="none" fill-rule="evenodd" transform="matrix(1 0 0 -1 88.5001 349.03)"/><path d="M88.5001 400.5 182.647 477.823" stroke="#4472C4" stroke-width="0.666667" stroke-miterlimit="8" fill="none" fill-rule="evenodd"/><path d="M313.5 293.5 427.139 346.429" stroke="#4472C4" stroke-width="0.666667" stroke-miterlimit="8" fill="none" fill-rule="evenodd"/><path d="M0 0 123.606 79.9238" stroke="#4472C4" stroke-width="0.666667" stroke-miterlimit="8" fill="none" fill-rule="evenodd" transform="matrix(1 0 0 -1 303.5 478.424)"/><rect x="751" y="346" width="134" height="52" stroke="#2F528F" stroke-width="2" stroke-miterlimit="8" fill="#C7EBFC"/><text font-family="Calibri,Calibri_MSFontService,sans-serif" font-weight="400" font-size="24" transform="translate(789.768 380)">knjiga</text><path d="M560.5 372 621 328.5 681.5 372 621 415.5Z" stroke="#2F528F" stroke-width="1.33333" stroke-miterlimit="8" fill="#C7EBFC" fill-rule="evenodd"/><text font-family="Calibri,Calibri_MSFontService,sans-serif" font-weight="400" font-size="21.3333" transform="translate(604.541 379)">ima</text><path d="M751.595 372.705 681.5 372.5" stroke="#4472C4" stroke-width="0.666667" stroke-miterlimit="8" fill="none" fill-rule="evenodd"/><path d="M0 0 65.6541 0.000104987" stroke="#4472C4" stroke-width="0.666667" stroke-miterlimit="8" fill="none" fill-rule="evenodd" transform="matrix(-1 0 0 1 560.154 372.5)"/><path d="M758.5 250 819 206.5 879.5 250 819 293.5Z" stroke="#2F528F" stroke-width="1.33333" stroke-miterlimit="8" fill="#C7EBFC" fill-rule="evenodd"/><text font-family="Calibri,Calibri_MSFontService,sans-serif" font-weight="400" font-size="21.3333" transform="translate(784.712 257)">napisao</text><rect x="1124" y="346" width="136" height="52" stroke="#2F528F" stroke-width="2" stroke-miterlimit="8" fill="#C7EBFC"/><text font-family="Calibri,Calibri_MSFontService,sans-serif" font-weight="400" font-size="24" transform="translate(1144.19 379)">kategorija</text><rect x="750" y="584" width="136" height="52" stroke="#2F528F" stroke-width="2" stroke-miterlimit="8" fill="#C7EBFC"/><text font-family="Calibri,Calibri_MSFontService,sans-serif" font-weight="400" font-size="24" transform="translate(783.108 618)">izdavač</text><path d="M758.5 492 819 448.5 879.5 492 819 535.5Z" stroke="#2F528F" stroke-width="1.33333" stroke-miterlimit="8" fill="#C7EBFC" fill-rule="evenodd"/><text font-family="Calibri,Calibri_MSFontService,sans-serif" font-weight="400" font-size="21.3333" transform="translate(793.286 498)">izdaje</text><path d="M945.5 372 1006 328.5 1066.5 372 1006 415.5Z" stroke="#2F528F" stroke-width="1.33333" stroke-miterlimit="8" fill="#C7EBFC" fill-rule="evenodd"/><text font-family="Calibri,Calibri_MSFontService,sans-serif" font-weight="400" font-size="21.3333" transform="translate(972.699 379)">pripada</text><path d="M818.5 160.5 818.5 206.918" stroke="#4472C4" stroke-width="0.666667" stroke-miterlimit="8" fill="none" fill-rule="evenodd"/><path d="M0 0 0.000104987 53.1345" stroke="#4472C4" stroke-width="0.666667" stroke-miterlimit="8" fill="none" fill-rule="evenodd" transform="matrix(-1 0 0 1 818.5 293.5)"/><path d="M818.5 398.5 818.5 448.262" stroke="#4472C4" stroke-width="0.666667" stroke-miterlimit="8" fill="none" fill-rule="evenodd"/><path d="M0 0 0.000104987 49.5853" stroke="#4472C4" stroke-width="0.666667" stroke-miterlimit="8" fill="none" fill-rule="evenodd" transform="matrix(-1 0 0 1 818.5 535.5)"/><path d="M0 0 59.8276 0.291339" stroke="#4472C4" stroke-width="0.666667" stroke-miterlimit="8" fill="none" fill-rule="evenodd" transform="matrix(1 0 0 -1 885.5 372.791)"/><path d="M1066.5 372.5 1124.53 372.5" stroke="#4472C4" stroke-width="0.666667" stroke-miterlimit="8" fill="none" fill-rule="evenodd"/><path d="M179.5 144.5C179.5 131.798 214.198 121.5 257 121.5 299.802 121.5 334.5 131.798 334.5 144.5 334.5 157.203 299.802 167.5 257 167.5 214.198 167.5 179.5 157.203 179.5 144.5Z" stroke="#2F528F" stroke-width="0.666667" stroke-miterlimit="8" fill="#C7EBFC" fill-rule="evenodd"/><text font-family="Calibri,Calibri_MSFontService,sans-serif" font-weight="400" font-size="21.3333" transform="translate(214.971 151)">rokPovrat</text><path d="M334.5 193.5C334.5 180.798 367.183 170.5 407.5 170.5 447.817 170.5 480.5 180.798 480.5 193.5 480.5 206.203 447.817 216.5 407.5 216.5 367.183 216.5 334.5 206.203 334.5 193.5Z" stroke="#2F528F" stroke-width="0.666667" stroke-miterlimit="8" fill="#C7EBFC" fill-rule="evenodd"/><text font-family="Calibri,Calibri_MSFontService,sans-serif" font-weight="400" font-size="21.3333" transform="translate(373.678 200)">datPovr</text><path d="M109.5 216.5 220.826 272.718" stroke="#4472C4" stroke-width="0.666667" stroke-miterlimit="8" fill="none" fill-rule="evenodd"/><path d="M0 0 4.62068 82.6655" stroke="#4472C4" stroke-width="0.666667" stroke-miterlimit="8" fill="none" fill-rule="evenodd" transform="matrix(-1 0 0 1 257.121 167.5)"/><path d="M0 0 123.034 59.551" stroke="#4472C4" stroke-width="0.666667" stroke-miterlimit="8" fill="none" fill-rule="evenodd" transform="matrix(-1 0 0 1 407.534 216.5)"/><path d="M41.5001 571C41.5001 558.574 74.1833 548.5 114.5 548.5 154.817 548.5 187.5 558.574 187.5 571 187.5 583.426 154.817 593.5 114.5 593.5 74.1833 593.5 41.5001 583.426 41.5001 571Z" stroke="#2F528F" stroke-width="0.666667" stroke-miterlimit="8" fill="#C7EBFC" fill-rule="evenodd"/><text font-family="Calibri,Calibri_MSFontService,sans-serif" font-weight="400" font-size="21.3333" transform="translate(84.8281 578)">datRez</text><path d="M278.5 570.5C278.5 557.797 311.183 547.5 351.5 547.5 391.817 547.5 424.5 557.797 424.5 570.5 424.5 583.203 391.817 593.5 351.5 593.5 311.183 593.5 278.5 583.203 278.5 570.5Z" stroke="#2F528F" stroke-width="0.666667" stroke-miterlimit="8" fill="#C7EBFC" fill-rule="evenodd"/><text font-family="Calibri,Calibri_MSFontService,sans-serif" font-weight="400" font-size="21.3333" transform="translate(316.751 577)">datIstek</text><text font-family="Calibri,Calibri_MSFontService,sans-serif" font-weight="400" font-size="24" transform="translate(1089.03 363)">1</text><text font-family="Calibri,Calibri_MSFontService,sans-serif" font-weight="400" font-size="24" transform="translate(826.45 328)">N</text><text font-family="Calibri,Calibri_MSFontService,sans-serif" font-weight="400" font-size="24" transform="translate(906.577 361)">N</text><text font-family="Calibri,Calibri_MSFontService,sans-serif" font-weight="400" font-size="24" transform="translate(828.494 192)">M</text><text font-family="Calibri,Calibri_MSFontService,sans-serif" font-weight="400" font-size="24" transform="translate(826.45 430)">N</text><text font-family="Calibri,Calibri_MSFontService,sans-serif" font-weight="400" font-size="24" transform="translate(827.895 566)">1</text><text font-family="Calibri,Calibri_MSFontService,sans-serif" font-weight="400" font-size="24" transform="translate(518.139 365)">N</text><text font-family="Calibri,Calibri_MSFontService,sans-serif" font-weight="400" font-size="24" transform="translate(712.729 365)">1</text><text font-family="Calibri,Calibri_MSFontService,sans-serif" font-weight="400" font-size="24" transform="translate(372.842 313)">N</text><text font-family="Calibri,Calibri_MSFontService,sans-serif" font-weight="400" font-size="24" transform="translate(119.816 314)">M</text><text font-family="Calibri,Calibri_MSFontService,sans-serif" font-weight="400" font-size="24" transform="translate(118.378 458)">1</text><text font-family="Calibri,Calibri_MSFontService,sans-serif" font-weight="400" font-size="24" transform="translate(367.936 461)">N</text><path d="M0 0 103.768 44.1264" stroke="#4472C4" stroke-width="0.666667" stroke-miterlimit="8" fill="none" fill-rule="evenodd" transform="matrix(1 0 0 -1 114.5 547.626)"/><path d="M351.406 547.885 278.5 496.5" stroke="#4472C4" stroke-width="0.666667" stroke-miterlimit="8" fill="none" fill-rule="evenodd"/></g></svg>