<?xml version="1.0" encoding="us-ascii" standalone="no"?><svg xmlns="http://www.w3.org/2000/svg" xmlns:xlink="http://www.w3.org/1999/xlink" contentStyleType="text/css" height="548px" preserveAspectRatio="none" style="width:909px;height:548px;background:#FFFFFF;" version="1.1" viewBox="0 0 909 548" width="909px" zoomAndPan="magnify"><defs/><g><!--class kategorija--><g id="elem_kategorija"><rect codeLine="7" fill="#F1F1F1" height="78.8281" id="kategorija" rx="2.5" ry="2.5" style="stroke:#181818;stroke-width:0.5;" width="165" x="7" y="71"/><text fill="#000000" font-family="sans-serif" font-size="14" lengthAdjust="spacing" textLength="62" x="58.5" y="90.5332">kategorija</text><line style="stroke:#181818;stroke-width:0.5;" x1="8" x2="171" y1="98.6094" y2="98.6094"/><ellipse cx="18" cy="112.9141" fill="#000000" rx="3" ry="3" style="stroke:#000000;stroke-width:1.0;"/><text fill="#000000" font-family="sans-serif" font-size="14" lengthAdjust="spacing" textLength="65" x="27" y="117.1426">idKat : INT</text><line style="stroke:#181818;stroke-width:1.0;" x1="8" x2="171" y1="124.2188" y2="124.2188"/><text fill="#000000" font-family="sans-serif" font-size="14" lengthAdjust="spacing" textLength="153" x="13" y="142.752">naziv : NVARCHAR(100)</text></g><!--class izdavac--><g id="elem_izdavac"><rect codeLine="13" fill="#F1F1F1" height="78.8281" id="izdavac" rx="2.5" ry="2.5" style="stroke:#181818;stroke-width:0.5;" width="165" x="7" y="230"/><text fill="#000000" font-family="sans-serif" font-size="14" lengthAdjust="spacing" textLength="47" x="66" y="249.5332">izdavac</text><line style="stroke:#181818;stroke-width:0.5;" x1="8" x2="171" y1="257.6094" y2="257.6094"/><ellipse cx="18" cy="271.9141" fill="#000000" rx="3" ry="3" style="stroke:#000000;stroke-width:1.0;"/><text fill="#000000" font-family="sans-serif" font-size="14" lengthAdjust="spacing" textLength="91" x="27" y="276.1426">idIzdavac : INT</text><line style="stroke:#181818;stroke-width:1.0;" x1="8" x2="171" y1="283.2188" y2="283.2188"/><text fill="#000000" font-family="sans-serif" font-size="14" lengthAdjust="spacing" textLength="153" x="13" y="301.752">naziv : NVARCHAR(150)</text></g><!--class autor--><g id="elem_autor"><rect codeLine="19" fill="#F1F1F1" height="96.4375" id="autor" rx="2.5" ry="2.5" style="stroke:#181818;stroke-width:0.5;" width="182" x="252" y="445.5"/><text fill="#000000" font-family="sans-serif" font-size="14" lengthAdjust="spacing" textLength="33" x="326.5" y="465.0332">autor</text><line style="stroke:#181818;stroke-width:0.5;" x1="253" x2="433" y1="473.1094" y2="473.1094"/><ellipse cx="263" cy="487.4141" fill="#000000" rx="3" ry="3" style="stroke:#000000;stroke-width:1.0;"/><text fill="#000000" font-family="sans-serif" font-size="14" lengthAdjust="spacing" textLength="78" x="272" y="491.6426">idAutor : INT</text><line style="stroke:#181818;stroke-width:1.0;" x1="253" x2="433" y1="498.7188" y2="498.7188"/><text fill="#000000" font-family="sans-serif" font-size="14" lengthAdjust="spacing" textLength="143" x="258" y="517.252">ime : NVARCHAR(100)</text><text fill="#000000" font-family="sans-serif" font-size="14" lengthAdjust="spacing" textLength="170" x="258" y="534.8613">prezime : NVARCHAR(100)</text></g><!--class clan--><g id="elem_clan"><rect codeLine="26" fill="#F1F1F1" height="149.2656" id="clan" rx="2.5" ry="2.5" style="stroke:#181818;stroke-width:0.5;" width="182" x="514" y="225"/><text fill="#000000" font-family="sans-serif" font-size="14" lengthAdjust="spacing" textLength="26" x="592" y="244.5332">clan</text><line style="stroke:#181818;stroke-width:0.5;" x1="515" x2="695" y1="252.6094" y2="252.6094"/><ellipse cx="525" cy="266.9141" fill="#000000" rx="3" ry="3" style="stroke:#000000;stroke-width:1.0;"/><text fill="#000000" font-family="sans-serif" font-size="14" lengthAdjust="spacing" textLength="73" x="534" y="271.1426">idClan : INT</text><line style="stroke:#181818;stroke-width:1.0;" x1="515" x2="695" y1="278.2188" y2="278.2188"/><text fill="#000000" font-family="sans-serif" font-size="14" lengthAdjust="spacing" textLength="95" x="520" y="296.752">oib : CHAR(11)</text><text fill="#000000" font-family="sans-serif" font-size="14" lengthAdjust="spacing" textLength="143" x="520" y="314.3613">ime : NVARCHAR(100)</text><text fill="#000000" font-family="sans-serif" font-size="14" lengthAdjust="spacing" textLength="170" x="520" y="331.9707">prezime : NVARCHAR(100)</text><text fill="#000000" font-family="sans-serif" font-size="14" lengthAdjust="spacing" textLength="154" x="520" y="349.5801">email : NVARCHAR(150)</text><text fill="#000000" font-family="sans-serif" font-size="14" lengthAdjust="spacing" textLength="151" x="520" y="367.1895">status : NVARCHAR(50)</text></g><!--class knjiga--><g id="elem_knjiga"><rect codeLine="36" fill="#F1F1F1" height="131.6563" id="knjiga" rx="2.5" ry="2.5" style="stroke:#181818;stroke-width:0.5;" width="174" x="256" y="123.5"/><text fill="#000000" font-family="sans-serif" font-size="14" lengthAdjust="spacing" textLength="37" x="324.5" y="143.0332">knjiga</text><line style="stroke:#181818;stroke-width:0.5;" x1="257" x2="429" y1="151.1094" y2="151.1094"/><ellipse cx="267" cy="165.4141" fill="#000000" rx="3" ry="3" style="stroke:#000000;stroke-width:1.0;"/><text fill="#000000" font-family="sans-serif" font-size="14" lengthAdjust="spacing" textLength="83" x="276" y="169.6426">idKnjiga : INT</text><line style="stroke:#181818;stroke-width:1.0;" x1="257" x2="429" y1="176.7188" y2="176.7188"/><text fill="#000000" font-family="sans-serif" font-size="14" lengthAdjust="spacing" textLength="139" x="262" y="195.252">isbn : NVARCHAR(20)</text><text fill="#000000" font-family="sans-serif" font-size="14" lengthAdjust="spacing" textLength="162" x="262" y="212.8613">naslov : NVARCHAR(200)</text><text fill="#000000" font-family="sans-serif" font-size="14" lengthAdjust="spacing" textLength="65" x="262" y="230.4707">idKat : INT</text><text fill="#000000" font-family="sans-serif" font-size="14" lengthAdjust="spacing" textLength="91" x="262" y="248.0801">idIzdavac : INT</text></g><!--class primjerak--><g id="elem_primjerak"><rect codeLine="45" fill="#F1F1F1" height="131.6563" id="primjerak" rx="2.5" ry="2.5" style="stroke:#181818;stroke-width:0.5;" width="169" x="520.5" y="12.5"/><text fill="#000000" font-family="sans-serif" font-size="14" lengthAdjust="spacing" textLength="58" x="576" y="32.0332">primjerak</text><line style="stroke:#181818;stroke-width:0.5;" x1="521.5" x2="688.5" y1="40.1094" y2="40.1094"/><ellipse cx="531.5" cy="54.4141" fill="#000000" rx="3" ry="3" style="stroke:#000000;stroke-width:1.0;"/><text fill="#000000" font-family="sans-serif" font-size="14" lengthAdjust="spacing" textLength="65" x="540.5" y="58.6426">invBr : INT</text><line style="stroke:#181818;stroke-width:1.0;" x1="521.5" x2="688.5" y1="65.7188" y2="65.7188"/><text fill="#000000" font-family="sans-serif" font-size="14" lengthAdjust="spacing" textLength="157" x="526.5" y="84.252">izdanje : NVARCHAR(50)</text><text fill="#000000" font-family="sans-serif" font-size="14" lengthAdjust="spacing" textLength="74" x="526.5" y="101.8613">godIzd : INT</text><text fill="#000000" font-family="sans-serif" font-size="14" lengthAdjust="spacing" textLength="151" x="526.5" y="119.4707">status : NVARCHAR(50)</text><text fill="#000000" font-family="sans-serif" font-size="14" lengthAdjust="spacing" textLength="83" x="526.5" y="137.0801">idKnjiga : INT</text></g><!--class napisao--><g id="elem_napisao"><rect codeLine="54" fill="#F1F1F1" height="78.8281" id="napisao" rx="2.5" ry="2.5" style="stroke:#181818;stroke-width:0.5;" width="109" x="550.5" y="454"/><text fill="#000000" font-family="sans-serif" font-size="14" lengthAdjust="spacing" textLength="50" x="580" y="473.5332">napisao</text><line style="stroke:#181818;stroke-width:0.5;" x1="551.5" x2="658.5" y1="481.6094" y2="481.6094"/><ellipse cx="561.5" cy="495.9141" fill="#000000" rx="3" ry="3" style="stroke:#000000;stroke-width:1.0;"/><text fill="#000000" font-family="sans-serif" font-size="14" lengthAdjust="spacing" textLength="78" x="570.5" y="500.1426">idAutor : INT</text><ellipse cx="561.5" cy="513.5234" fill="#000000" rx="3" ry="3" style="stroke:#000000;stroke-width:1.0;"/><text fill="#000000" font-family="sans-serif" font-size="14" lengthAdjust="spacing" textLength="83" x="570.5" y="517.752">idKnjiga : INT</text><line style="stroke:#181818;stroke-width:0.5;" x1="551.5" x2="658.5" y1="524.8281" y2="524.8281"/></g><!--class posudba--><g id="elem_posudba"><rect codeLine="59" fill="#F1F1F1" height="149.2656" id="posudba" rx="2.5" ry="2.5" style="stroke:#181818;stroke-width:0.5;" width="126" x="776" y="7"/><text fill="#000000" font-family="sans-serif" font-size="14" lengthAdjust="spacing" textLength="55" x="811.5" y="26.5332">posudba</text><line style="stroke:#181818;stroke-width:0.5;" x1="777" x2="901" y1="34.6094" y2="34.6094"/><ellipse cx="787" cy="48.9141" fill="#000000" rx="3" ry="3" style="stroke:#000000;stroke-width:1.0;"/><text fill="#000000" font-family="sans-serif" font-size="14" lengthAdjust="spacing" textLength="100" x="796" y="53.1426">idPosudba : INT</text><line style="stroke:#181818;stroke-width:1.0;" x1="777" x2="901" y1="60.2188" y2="60.2188"/><text fill="#000000" font-family="sans-serif" font-size="14" lengthAdjust="spacing" textLength="65" x="782" y="78.752">invBr : INT</text><text fill="#000000" font-family="sans-serif" font-size="14" lengthAdjust="spacing" textLength="73" x="782" y="96.3613">idClan : INT</text><text fill="#000000" font-family="sans-serif" font-size="14" lengthAdjust="spacing" textLength="109" x="782" y="113.9707">datPosud : DATE</text><text fill="#000000" font-family="sans-serif" font-size="14" lengthAdjust="spacing" textLength="98" x="782" y="131.5801">rokPovr : DATE</text><text fill="#000000" font-family="sans-serif" font-size="14" lengthAdjust="spacing" textLength="98" x="782" y="149.1895">datPovr : DATE</text></g><!--class rezervacija--><g id="elem_rezervacija"><rect codeLine="69" fill="#F1F1F1" height="114.0469" id="rezervacija" rx="2.5" ry="2.5" style="stroke:#181818;stroke-width:0.5;" width="110" x="784" y="238.5"/><text fill="#000000" font-family="sans-serif" font-size="14" lengthAdjust="spacing" textLength="68" x="805" y="258.0332">rezervacija</text><line style="stroke:#181818;stroke-width:0.5;" x1="785" x2="893" y1="266.1094" y2="266.1094"/><ellipse cx="795" cy="280.4141" fill="#000000" rx="3" ry="3" style="stroke:#000000;stroke-width:1.0;"/><text fill="#000000" font-family="sans-serif" font-size="14" lengthAdjust="spacing" textLength="65" x="804" y="284.6426">invBr : INT</text><line style="stroke:#181818;stroke-width:1.0;" x1="785" x2="893" y1="291.7188" y2="291.7188"/><text fill="#000000" font-family="sans-serif" font-size="14" lengthAdjust="spacing" textLength="73" x="790" y="310.252">idClan : INT</text><text fill="#000000" font-family="sans-serif" font-size="14" lengthAdjust="spacing" textLength="93" x="790" y="327.8613">datRez : DATE</text><text fill="#000000" font-family="sans-serif" font-size="14" lengthAdjust="spacing" textLength="98" x="790" y="345.4707">datIstek : DATE</text></g><!--link kategorija to knjiga--><g id="link_kategorija_knjiga"><path codeLine="77" d="M180.15,136.75 C206.88,136.75 210.6,136.75 237.66,136.75 " fill="none" id="kategorija-knjiga" style="stroke:#181818;stroke-width:1.0;"/><line style="stroke:#181818;stroke-width:1.0;" x1="176.15" x2="176.15" y1="140.75" y2="132.75"/><line style="stroke:#181818;stroke-width:1.0;" x1="179.15" x2="179.15" y1="140.75" y2="132.75"/><line style="stroke:#181818;stroke-width:1.0;" x1="180.15" x2="172.15" y1="136.75" y2="136.75"/><line style="stroke:#181818;stroke-width:1.0;" x1="247.66" x2="255.66" y1="136.75" y2="130.75"/><line style="stroke:#181818;stroke-width:1.0;" x1="247.66" x2="255.66" y1="136.75" y2="142.75"/><line style="stroke:#181818;stroke-width:1.0;" x1="247.66" x2="255.66" y1="136.75" y2="136.75"/><ellipse cx="241.66" cy="136.75" fill="none" rx="4" ry="4" style="stroke:#181818;stroke-width:1.0;"/></g><!--link izdavac to knjiga--><g id="link_izdavac_knjiga"><path codeLine="78" d="M180.15,242.75 C206.88,242.75 210.6,242.75 237.66,242.75 " fill="none" id="izdavac-knjiga" style="stroke:#181818;stroke-width:1.0;"/><line style="stroke:#181818;stroke-width:1.0;" x1="176.15" x2="176.15" y1="246.75" y2="238.75"/><line style="stroke:#181818;stroke-width:1.0;" x1="179.15" x2="179.15" y1="246.75" y2="238.75"/><line style="stroke:#181818;stroke-width:1.0;" x1="180.15" x2="172.15" y1="242.75" y2="242.75"/><line style="stroke:#181818;stroke-width:1.0;" x1="247.66" x2="255.66" y1="242.75" y2="236.75"/><line style="stroke:#181818;stroke-width:1.0;" x1="247.66" x2="255.66" y1="242.75" y2="248.75"/><line style="stroke:#181818;stroke-width:1.0;" x1="247.66" x2="255.66" y1="242.75" y2="242.75"/><ellipse cx="241.66" cy="242.75" fill="none" rx="4" ry="4" style="stroke:#181818;stroke-width:1.0;"/></g><!--link knjiga to primjerak--><g id="link_knjiga_primjerak"><path codeLine="79" d="M438.24,134 C467.27,134 473.54,134 502.36,134 " fill="none" id="knjiga-primjerak" style="stroke:#181818;stroke-width:1.0;"/><line style="stroke:#181818;stroke-width:1.0;" x1="434.24" x2="434.24" y1="138" y2="130"/><line style="stroke:#181818;stroke-width:1.0;" x1="437.24" x2="437.24" y1="138" y2="130"/><line style="stroke:#181818;stroke-width:1.0;" x1="438.24" x2="430.24" y1="134" y2="134"/><line style="stroke:#181818;stroke-width:1.0;" x1="512.36" x2="520.36" y1="134" y2="128"/><line style="stroke:#181818;stroke-width:1.0;" x1="512.36" x2="520.36" y1="134" y2="140"/><line style="stroke:#181818;stroke-width:1.0;" x1="512.36" x2="520.36" y1="134" y2="134"/><ellipse cx="506.36" cy="134" fill="none" rx="4" ry="4" style="stroke:#181818;stroke-width:1.0;"/></g><!--link autor to napisao--><g id="link_autor_napisao"><path codeLine="81" d="M442.27,506.67 C480.96,506.67 498.76,506.67 532.31,506.67 " fill="none" id="autor-napisao" style="stroke:#181818;stroke-width:1.0;"/><line style="stroke:#181818;stroke-width:1.0;" x1="438.27" x2="438.27" y1="510.67" y2="502.67"/><line style="stroke:#181818;stroke-width:1.0;" x1="441.27" x2="441.27" y1="510.67" y2="502.67"/><line style="stroke:#181818;stroke-width:1.0;" x1="442.27" x2="434.27" y1="506.67" y2="506.67"/><line style="stroke:#181818;stroke-width:1.0;" x1="542.31" x2="550.31" y1="506.67" y2="500.67"/><line style="stroke:#181818;stroke-width:1.0;" x1="542.31" x2="550.31" y1="506.67" y2="512.67"/><line style="stroke:#181818;stroke-width:1.0;" x1="542.31" x2="550.31" y1="506.67" y2="506.67"/><ellipse cx="536.31" cy="506.67" fill="none" rx="4" ry="4" style="stroke:#181818;stroke-width:1.0;"/></g><!--link knjiga to napisao--><g id="link_knjiga_napisao"><path codeLine="82" d="M438.01,240.25 C462.21,240.25 474,240.25 474,240.25 C474,240.25 474,480.33 474,480.33 C474,480.33 496.31,480.33 532.2,480.33 " fill="none" id="knjiga-napisao" style="stroke:#181818;stroke-width:1.0;"/><line style="stroke:#181818;stroke-width:1.0;" x1="434.01" x2="434.01" y1="244.25" y2="236.25"/><line style="stroke:#181818;stroke-width:1.0;" x1="437.01" x2="437.01" y1="244.25" y2="236.25"/><line style="stroke:#181818;stroke-width:1.0;" x1="438.01" x2="430.01" y1="240.25" y2="240.25"/><line style="stroke:#181818;stroke-width:1.0;" x1="542.2" x2="550.2" y1="480.33" y2="474.33"/><line style="stroke:#181818;stroke-width:1.0;" x1="542.2" x2="550.2" y1="480.33" y2="486.33"/><line style="stroke:#181818;stroke-width:1.0;" x1="542.2" x2="550.2" y1="480.33" y2="480.33"/><ellipse cx="536.2" cy="480.33" fill="none" rx="4" ry="4" style="stroke:#181818;stroke-width:1.0;"/></g><!--link clan to posudba--><g id="link_clan_posudba"><path codeLine="84" d="M704.09,231.75 C746.61,231.75 780,231.75 780,231.75 C780,231.75 780,211.89 780,174.18 " fill="none" id="clan-posudba" style="stroke:#181818;stroke-width:1.0;"/><line style="stroke:#181818;stroke-width:1.0;" x1="700.09" x2="700.09" y1="235.75" y2="227.75"/><line style="stroke:#181818;stroke-width:1.0;" x1="703.09" x2="703.09" y1="235.75" y2="227.75"/><line style="stroke:#181818;stroke-width:1.0;" x1="704.09" x2="696.09" y1="231.75" y2="231.75"/><line style="stroke:#181818;stroke-width:1.0;" x1="780" x2="774" y1="164.18" y2="156.18"/><line style="stroke:#181818;stroke-width:1.0;" x1="780" x2="786" y1="164.18" y2="156.18"/><line style="stroke:#181818;stroke-width:1.0;" x1="780" x2="780" y1="164.18" y2="156.18"/><ellipse cx="780" cy="170.18" fill="none" rx="4" ry="4" style="stroke:#181818;stroke-width:1.0;"/></g><!--link primjerak to posudba--><g id="link_primjerak_posudba"><path codeLine="85" d="M697.81,56.5 C726.19,56.5 731.32,56.5 757.76,56.5 " fill="none" id="primjerak-posudba" style="stroke:#181818;stroke-width:1.0;"/><line style="stroke:#181818;stroke-width:1.0;" x1="693.81" x2="693.81" y1="60.5" y2="52.5"/><line style="stroke:#181818;stroke-width:1.0;" x1="696.81" x2="696.81" y1="60.5" y2="52.5"/><line style="stroke:#181818;stroke-width:1.0;" x1="697.81" x2="689.81" y1="56.5" y2="56.5"/><line style="stroke:#181818;stroke-width:1.0;" x1="767.76" x2="775.76" y1="56.5" y2="50.5"/><line style="stroke:#181818;stroke-width:1.0;" x1="767.76" x2="775.76" y1="56.5" y2="62.5"/><line style="stroke:#181818;stroke-width:1.0;" x1="767.76" x2="775.76" y1="56.5" y2="56.5"/><ellipse cx="761.76" cy="56.5" fill="none" rx="4" ry="4" style="stroke:#181818;stroke-width:1.0;"/></g><!--link clan to rezervacija--><g id="link_clan_rezervacija"><path codeLine="87" d="M704.14,314.5 C733.78,314.5 739.76,314.5 765.93,314.5 " fill="none" id="clan-rezervacija" style="stroke:#181818;stroke-width:1.0;"/><line style="stroke:#181818;stroke-width:1.0;" x1="700.14" x2="700.14" y1="318.5" y2="310.5"/><line style="stroke:#181818;stroke-width:1.0;" x1="703.14" x2="703.14" y1="318.5" y2="310.5"/><line style="stroke:#181818;stroke-width:1.0;" x1="704.14" x2="696.14" y1="314.5" y2="314.5"/><line style="stroke:#181818;stroke-width:1.0;" x1="775.93" x2="783.93" y1="314.5" y2="308.5"/><line style="stroke:#181818;stroke-width:1.0;" x1="775.93" x2="783.93" y1="314.5" y2="320.5"/><line style="stroke:#181818;stroke-width:1.0;" x1="775.93" x2="783.93" y1="314.5" y2="314.5"/><ellipse cx="769.93" cy="314.5" fill="none" rx="4" ry="4" style="stroke:#181818;stroke-width:1.0;"/></g><!--link primjerak to rezervacija--><g id="link_primjerak_rezervacija"><path codeLine="88" d="M697.81,100.5 C723,100.5 736,100.5 736,100.5 C736,100.5 736,276.5 736,276.5 C736,276.5 751.39,276.5 775.88,276.5 " fill="none" id="primjerak-rezervacija" style="stroke:#181818;stroke-width:1.0;"/><line style="stroke:#181818;stroke-width:1.0;" x1="693.81" x2="693.81" y1="104.5" y2="96.5"/><line style="stroke:#181818;stroke-width:1.0;" x1="696.81" x2="696.81" y1="104.5" y2="96.5"/><line style="stroke:#181818;stroke-width:1.0;" x1="697.81" x2="689.81" y1="100.5" y2="100.5"/><line style="stroke:#181818;stroke-width:1.0;" x1="779.88" x2="779.88" y1="272.5" y2="280.5"/><line style="stroke:#181818;stroke-width:1.0;" x1="776.88" x2="776.88" y1="272.5" y2="280.5"/><line style="stroke:#181818;stroke-width:1.0;" x1="775.88" x2="783.88" y1="276.5" y2="276.5"/></g><!--SRC=[bPDDQyCm38Rl_XLYfsrGw0Q3iLlt0Ik3KahPNKsqLarg1ziDBCt- -zoaJMotszWbmQ-aHvPahJWbI5WdEGcJiInGumPobcG_2mAbxKg9d3uiM0MQboiBAMjAB2lf1KYLag42xeUUg55c1r6Gj6m_uI93IqkbUOqNi1C0ry3f6rfuWF5axiw3WVj8hBXqqkHzD7jw7SqkRuR3A_7LKxXAiSIaHunRuI_CNOZ1hLMwXupsnn316pgv1q2XgJfdyT19Zh8dFxbJ25QyS48RUdFrxqm0j47EJue3C1RjrlY6gEXChddfTxyvHsMRXVGHjmrQeibL6UgD8HnXF0qlTw5vioQDMPTUbeznorsmN5DS0S1IxS6Ty_b28Qx8oownO8Fgfu5V_n9QABDD5rxNfgqGNJse9XfxYhO9SiBpQFxY5AsogIfrBpGklU3bTy-0j6kflpTdMdUISKPLW1yRIvd7xzSHwdemK3jeduSuR5Yajh-Zs4rJY6QJZlgXpv7tKHNxrUWGRHj5XueDWRVNXIYYhWFZDm00]--></g></svg>